<svg width="109" height="102" viewBox="0 0 109 102" fill="none" xmlns="http://www.w3.org/2000/svg">
<defs>
<filter id="filter0_b" x="-15" y="33" width="100" height="73" filterUnits="userSpaceOnUse" color-interpolation-filters="sRGB">
<feFlood flood-opacity="0" result="BackgroundImageFix"/>
<feGaussianBlur in="BackgroundImage" stdDeviation="7.5"/>
<feComposite in2="SourceAlpha" operator="in" result="effect1_backgroundBlur"/>
<feBlend mode="normal" in="SourceGraphic" in2="effect1_backgroundBlur" result="shape"/>
</filter>
<linearGradient id="paint0_linear" x1="38.8798" y1="4.06867" x2="68.6223" y2="96" gradientUnits="userSpaceOnUse">
<stop stop-color="#FDE7BB"/>
<stop offset="1" stop-color="#E7C06D"/>
</linearGradient>
<linearGradient id="paint1_linear" x1="12" y1="52" x2="48.5" y2="91" gradientUnits="userSpaceOnUse">
<stop stop-color="#E6E5F0"/>
<stop offset="1" stop-color="#A6A5A9"/>
</linearGradient>
</defs>
<circle cx="58" cy="51" r="51" fill="#FBE3B3" fill-opacity="0.21"/>
<circle cx="58" cy="51" r="45" fill="url(#paint0_linear)"/>
<g filter="url(#filter0_b)">
<path fill-rule="evenodd" clip-rule="evenodd" d="M57.75 91H36.5H15H14V90.9672C6.18197 90.4526 0 83.9482 0 76C0 67.7157 6.71573 61 15 61C15.5764 61 16.1451 61.0325 16.7046 61.0958C19.9769 53.398 27.608 48 36.5 48C47.3561 48 56.3329 56.046 57.7924 66.5001C64.5384 66.5229 70 71.9986 70 78.75C70 85.432 64.6501 90.8644 58 90.9975V91H57.75Z" fill="url(#paint1_linear)" fill-opacity="0.7"/>
</g>
</svg>
